# xmcd
# 
# Track frame offsets:
#     150
#     20090
#     34577
#     53607
#     70187
#     86567
#     104102
#     118100
#     135030
#     153042
#     168597
#     185527
#     200805
#     218059
# 
# Disc length: 3127
# 
# Revision: 4
# Processed by: cddbd v1.5.2PL0 Copyright (c) Steve Scherf et al.
# Submitted via: BonkEnc v1.0.8
# 
DISCID=bf0c350e
DTITLE=Billy Ray Cyrus - The Best of Billy Ray Cyrus
DYEAR=2005
DGENRE=Country
TTITLE0=It's all the same to me
TTITLE1=Cover to cover
TTITLE2=Bluegrass state of mind
TTITLE3=Trail of tears
TTITLE4=One last thrill
TTITLE5=Storm in the heartland
TTITLE6=Words by heart
TTITLE7=Somebody new
TTITLE8=In the heart of a woman
TTITLE9=She's not cryin' anymore
TTITLE10=Could've been me
TTITLE11=Achy breaky heart
TTITLE12=Ela nao vai mais chorar
TTITLE13=So meu coração
EXTD=YEAR: 2005
EXTT0=
EXTT1=
EXTT2=
EXTT3=
EXTT4=
EXTT5=
EXTT6=
EXTT7=
EXTT8=
EXTT9=
EXTT10=
EXTT11=
EXTT12=
EXTT13=
PLAYORDER=
